<mxfile host="app.diagrams.net" modified="2021-10-08T02:30:48.983Z" agent="5.0 (Windows)" etag="XZJ3vNBpQfA9XBZlIWX4" version="14.9.3" type="github">
  <diagram id="C5RBs43oDa-KdzZeNtuy" name="Page-1">
    <mxGraphModel dx="1292" dy="300" grid="1" gridSize="10" guides="1" tooltips="1" connect="1" arrows="1" fold="1" page="1" pageScale="1" pageWidth="827" pageHeight="1169" background="#9999FF" math="0" shadow="0">
      <root>
        <mxCell id="WIyWlLk6GJQsqaUBKTNV-0" />
        <mxCell id="WIyWlLk6GJQsqaUBKTNV-1" parent="WIyWlLk6GJQsqaUBKTNV-0" />
        <mxCell id="WIyWlLk6GJQsqaUBKTNV-3" value="Start" style="rounded=1;whiteSpace=wrap;html=1;fontSize=12;glass=0;strokeWidth=1;shadow=0;" parent="WIyWlLk6GJQsqaUBKTNV-1" vertex="1">
          <mxGeometry x="197" y="200" width="120" height="40" as="geometry" />
        </mxCell>
        <mxCell id="BUFvUShkw8OnN1NsTKim-28" value="" style="endArrow=classic;html=1;" edge="1" parent="WIyWlLk6GJQsqaUBKTNV-1" source="WIyWlLk6GJQsqaUBKTNV-3" target="BUFvUShkw8OnN1NsTKim-30">
          <mxGeometry width="50" height="50" relative="1" as="geometry">
            <mxPoint x="317" y="430" as="sourcePoint" />
            <mxPoint x="257" y="300" as="targetPoint" />
          </mxGeometry>
        </mxCell>
        <mxCell id="BUFvUShkw8OnN1NsTKim-29" value="Admin" style="rhombus;whiteSpace=wrap;html=1;" vertex="1" parent="WIyWlLk6GJQsqaUBKTNV-1">
          <mxGeometry x="-365" y="290" width="90" height="80" as="geometry" />
        </mxCell>
        <mxCell id="BUFvUShkw8OnN1NsTKim-30" value="Petugas" style="rhombus;whiteSpace=wrap;html=1;" vertex="1" parent="WIyWlLk6GJQsqaUBKTNV-1">
          <mxGeometry x="212" y="290" width="90" height="80" as="geometry" />
        </mxCell>
        <mxCell id="BUFvUShkw8OnN1NsTKim-31" value="Customer" style="rhombus;whiteSpace=wrap;html=1;" vertex="1" parent="WIyWlLk6GJQsqaUBKTNV-1">
          <mxGeometry x="377" y="290" width="90" height="80" as="geometry" />
        </mxCell>
        <mxCell id="BUFvUShkw8OnN1NsTKim-34" value="" style="endArrow=none;html=1;" edge="1" parent="WIyWlLk6GJQsqaUBKTNV-1" source="BUFvUShkw8OnN1NsTKim-29" target="BUFvUShkw8OnN1NsTKim-30">
          <mxGeometry width="50" height="50" relative="1" as="geometry">
            <mxPoint x="160" y="440" as="sourcePoint" />
            <mxPoint x="210" y="390" as="targetPoint" />
          </mxGeometry>
        </mxCell>
        <mxCell id="BUFvUShkw8OnN1NsTKim-35" value="" style="endArrow=none;html=1;" edge="1" parent="WIyWlLk6GJQsqaUBKTNV-1" source="BUFvUShkw8OnN1NsTKim-30" target="BUFvUShkw8OnN1NsTKim-31">
          <mxGeometry width="50" height="50" relative="1" as="geometry">
            <mxPoint x="237" y="440" as="sourcePoint" />
            <mxPoint x="287" y="390" as="targetPoint" />
          </mxGeometry>
        </mxCell>
        <mxCell id="BUFvUShkw8OnN1NsTKim-36" value="" style="endArrow=classic;html=1;" edge="1" parent="WIyWlLk6GJQsqaUBKTNV-1" source="BUFvUShkw8OnN1NsTKim-29">
          <mxGeometry width="50" height="50" relative="1" as="geometry">
            <mxPoint x="-175" y="410" as="sourcePoint" />
            <mxPoint x="-320" y="420" as="targetPoint" />
          </mxGeometry>
        </mxCell>
        <mxCell id="BUFvUShkw8OnN1NsTKim-37" value="" style="endArrow=classic;html=1;" edge="1" parent="WIyWlLk6GJQsqaUBKTNV-1" source="BUFvUShkw8OnN1NsTKim-30">
          <mxGeometry width="50" height="50" relative="1" as="geometry">
            <mxPoint x="256.65999999999997" y="370" as="sourcePoint" />
            <mxPoint x="256.65999999999997" y="420" as="targetPoint" />
          </mxGeometry>
        </mxCell>
        <mxCell id="BUFvUShkw8OnN1NsTKim-38" value="" style="endArrow=classic;html=1;" edge="1" parent="WIyWlLk6GJQsqaUBKTNV-1" source="BUFvUShkw8OnN1NsTKim-31">
          <mxGeometry width="50" height="50" relative="1" as="geometry">
            <mxPoint x="421.84939462545526" y="369.9961285559601" as="sourcePoint" />
            <mxPoint x="421.65999999999985" y="420.13" as="targetPoint" />
          </mxGeometry>
        </mxCell>
        <mxCell id="BUFvUShkw8OnN1NsTKim-40" value="Login" style="shape=parallelogram;perimeter=parallelogramPerimeter;whiteSpace=wrap;html=1;fixedSize=1;" vertex="1" parent="WIyWlLk6GJQsqaUBKTNV-1">
          <mxGeometry x="197" y="420" width="120" height="60" as="geometry" />
        </mxCell>
        <mxCell id="BUFvUShkw8OnN1NsTKim-41" value="Login" style="shape=parallelogram;perimeter=parallelogramPerimeter;whiteSpace=wrap;html=1;fixedSize=1;" vertex="1" parent="WIyWlLk6GJQsqaUBKTNV-1">
          <mxGeometry x="362" y="420" width="120" height="60" as="geometry" />
        </mxCell>
        <mxCell id="BUFvUShkw8OnN1NsTKim-42" value="login" style="shape=parallelogram;perimeter=parallelogramPerimeter;whiteSpace=wrap;html=1;fixedSize=1;" vertex="1" parent="WIyWlLk6GJQsqaUBKTNV-1">
          <mxGeometry x="-380" y="420" width="120" height="60" as="geometry" />
        </mxCell>
        <mxCell id="BUFvUShkw8OnN1NsTKim-43" value="" style="endArrow=classic;html=1;" edge="1" parent="WIyWlLk6GJQsqaUBKTNV-1" source="BUFvUShkw8OnN1NsTKim-42" target="BUFvUShkw8OnN1NsTKim-45">
          <mxGeometry width="50" height="50" relative="1" as="geometry">
            <mxPoint x="-260" y="380" as="sourcePoint" />
            <mxPoint x="-390" y="450" as="targetPoint" />
          </mxGeometry>
        </mxCell>
        <mxCell id="BUFvUShkw8OnN1NsTKim-46" value="Register?" style="edgeLabel;html=1;align=center;verticalAlign=middle;resizable=0;points=[];labelBackgroundColor=none;" vertex="1" connectable="0" parent="BUFvUShkw8OnN1NsTKim-43">
          <mxGeometry x="-0.3095" y="-1" relative="1" as="geometry">
            <mxPoint x="-6" y="-9" as="offset" />
          </mxGeometry>
        </mxCell>
        <mxCell id="BUFvUShkw8OnN1NsTKim-45" value="Register" style="shape=parallelogram;perimeter=parallelogramPerimeter;whiteSpace=wrap;html=1;fixedSize=1;strokeColor=#FFFFFF;" vertex="1" parent="WIyWlLk6GJQsqaUBKTNV-1">
          <mxGeometry x="-600" y="420" width="120" height="60" as="geometry" />
        </mxCell>
        <mxCell id="BUFvUShkw8OnN1NsTKim-48" value="Register" style="shape=parallelogram;perimeter=parallelogramPerimeter;whiteSpace=wrap;html=1;fixedSize=1;" vertex="1" parent="WIyWlLk6GJQsqaUBKTNV-1">
          <mxGeometry x="542" y="420" width="120" height="60" as="geometry" />
        </mxCell>
        <mxCell id="BUFvUShkw8OnN1NsTKim-50" value="" style="endArrow=classic;html=1;" edge="1" parent="WIyWlLk6GJQsqaUBKTNV-1" source="BUFvUShkw8OnN1NsTKim-41" target="BUFvUShkw8OnN1NsTKim-48">
          <mxGeometry width="50" height="50" relative="1" as="geometry">
            <mxPoint x="312" y="430" as="sourcePoint" />
            <mxPoint x="362" y="380" as="targetPoint" />
          </mxGeometry>
        </mxCell>
        <mxCell id="BUFvUShkw8OnN1NsTKim-51" value="Register?" style="text;html=1;align=center;verticalAlign=middle;resizable=0;points=[];autosize=1;strokeColor=none;" vertex="1" parent="WIyWlLk6GJQsqaUBKTNV-1">
          <mxGeometry x="482" y="430" width="70" height="20" as="geometry" />
        </mxCell>
        <mxCell id="BUFvUShkw8OnN1NsTKim-55" value="&lt;div&gt;Pendataan&lt;/div&gt;&lt;div&gt;barang&lt;br&gt;&lt;/div&gt;" style="rhombus;whiteSpace=wrap;html=1;" vertex="1" parent="WIyWlLk6GJQsqaUBKTNV-1">
          <mxGeometry x="-480" y="520" width="95" height="80" as="geometry" />
        </mxCell>
        <mxCell id="BUFvUShkw8OnN1NsTKim-56" value="&lt;div&gt;Generate&lt;/div&gt;&lt;div&gt;Laporan&lt;br&gt;&lt;/div&gt;" style="rhombus;whiteSpace=wrap;html=1;" vertex="1" parent="WIyWlLk6GJQsqaUBKTNV-1">
          <mxGeometry x="-260" y="520" width="95" height="80" as="geometry" />
        </mxCell>
        <mxCell id="BUFvUShkw8OnN1NsTKim-60" value="" style="endArrow=none;html=1;" edge="1" parent="WIyWlLk6GJQsqaUBKTNV-1" source="BUFvUShkw8OnN1NsTKim-42">
          <mxGeometry width="50" height="50" relative="1" as="geometry">
            <mxPoint x="-190" y="500" as="sourcePoint" />
            <mxPoint x="-320" y="560" as="targetPoint" />
          </mxGeometry>
        </mxCell>
        <mxCell id="BUFvUShkw8OnN1NsTKim-61" value="" style="endArrow=classic;html=1;" edge="1" parent="WIyWlLk6GJQsqaUBKTNV-1" target="BUFvUShkw8OnN1NsTKim-55">
          <mxGeometry width="50" height="50" relative="1" as="geometry">
            <mxPoint x="-317.5" y="560" as="sourcePoint" />
            <mxPoint x="-187.5" y="450" as="targetPoint" />
          </mxGeometry>
        </mxCell>
        <mxCell id="BUFvUShkw8OnN1NsTKim-62" value="" style="endArrow=classic;html=1;" edge="1" parent="WIyWlLk6GJQsqaUBKTNV-1" target="BUFvUShkw8OnN1NsTKim-56">
          <mxGeometry width="50" height="50" relative="1" as="geometry">
            <mxPoint x="-317.5" y="560" as="sourcePoint" />
            <mxPoint x="-187.5" y="450" as="targetPoint" />
          </mxGeometry>
        </mxCell>
        <mxCell id="BUFvUShkw8OnN1NsTKim-63" value="" style="endArrow=classic;html=1;" edge="1" parent="WIyWlLk6GJQsqaUBKTNV-1" source="BUFvUShkw8OnN1NsTKim-45" target="BUFvUShkw8OnN1NsTKim-55">
          <mxGeometry width="50" height="50" relative="1" as="geometry">
            <mxPoint x="-330" y="600" as="sourcePoint" />
            <mxPoint x="-280" y="550" as="targetPoint" />
            <Array as="points">
              <mxPoint x="-540" y="560" />
            </Array>
          </mxGeometry>
        </mxCell>
        <mxCell id="BUFvUShkw8OnN1NsTKim-66" value="&lt;div&gt;Pendataan&lt;/div&gt;&lt;div&gt;Barang&lt;br&gt;&lt;/div&gt;" style="rhombus;whiteSpace=wrap;html=1;" vertex="1" parent="WIyWlLk6GJQsqaUBKTNV-1">
          <mxGeometry x="-85" y="520" width="95" height="80" as="geometry" />
        </mxCell>
        <mxCell id="BUFvUShkw8OnN1NsTKim-67" value="&lt;div&gt;Buka/Tutup&lt;/div&gt;&lt;div&gt;Lelang&lt;br&gt;&lt;/div&gt;" style="rhombus;whiteSpace=wrap;html=1;" vertex="1" parent="WIyWlLk6GJQsqaUBKTNV-1">
          <mxGeometry x="65" y="520" width="95" height="80" as="geometry" />
        </mxCell>
        <mxCell id="BUFvUShkw8OnN1NsTKim-68" value="&lt;div&gt;Generate&lt;/div&gt;&lt;div&gt;Laporan&lt;br&gt;&lt;/div&gt;" style="rhombus;whiteSpace=wrap;html=1;" vertex="1" parent="WIyWlLk6GJQsqaUBKTNV-1">
          <mxGeometry x="207" y="520" width="95" height="80" as="geometry" />
        </mxCell>
        <mxCell id="BUFvUShkw8OnN1NsTKim-69" value="" style="endArrow=classic;html=1;" edge="1" parent="WIyWlLk6GJQsqaUBKTNV-1" source="BUFvUShkw8OnN1NsTKim-40" target="BUFvUShkw8OnN1NsTKim-68">
          <mxGeometry width="50" height="50" relative="1" as="geometry">
            <mxPoint x="165" y="620" as="sourcePoint" />
            <mxPoint x="215" y="570" as="targetPoint" />
          </mxGeometry>
        </mxCell>
        <mxCell id="BUFvUShkw8OnN1NsTKim-70" value="" style="endArrow=none;html=1;" edge="1" parent="WIyWlLk6GJQsqaUBKTNV-1" source="BUFvUShkw8OnN1NsTKim-67" target="BUFvUShkw8OnN1NsTKim-68">
          <mxGeometry width="50" height="50" relative="1" as="geometry">
            <mxPoint x="165" y="620" as="sourcePoint" />
            <mxPoint x="215" y="570" as="targetPoint" />
          </mxGeometry>
        </mxCell>
        <mxCell id="BUFvUShkw8OnN1NsTKim-71" value="" style="endArrow=none;html=1;" edge="1" parent="WIyWlLk6GJQsqaUBKTNV-1" source="BUFvUShkw8OnN1NsTKim-66" target="BUFvUShkw8OnN1NsTKim-67">
          <mxGeometry width="50" height="50" relative="1" as="geometry">
            <mxPoint x="165" y="620" as="sourcePoint" />
            <mxPoint x="75" y="610" as="targetPoint" />
          </mxGeometry>
        </mxCell>
        <mxCell id="BUFvUShkw8OnN1NsTKim-72" value="&lt;div&gt;Penawaran&lt;/div&gt;&lt;div&gt;Barang&lt;br&gt;&lt;/div&gt;" style="rhombus;whiteSpace=wrap;html=1;" vertex="1" parent="WIyWlLk6GJQsqaUBKTNV-1">
          <mxGeometry x="377" y="520" width="95" height="80" as="geometry" />
        </mxCell>
        <mxCell id="BUFvUShkw8OnN1NsTKim-73" value="" style="endArrow=classic;html=1;" edge="1" parent="WIyWlLk6GJQsqaUBKTNV-1" source="BUFvUShkw8OnN1NsTKim-41" target="BUFvUShkw8OnN1NsTKim-72">
          <mxGeometry width="50" height="50" relative="1" as="geometry">
            <mxPoint x="266.318181818182" y="490" as="sourcePoint" />
            <mxPoint x="265.39201877934283" y="530.7511737089201" as="targetPoint" />
          </mxGeometry>
        </mxCell>
        <mxCell id="BUFvUShkw8OnN1NsTKim-74" value="" style="endArrow=classic;html=1;" edge="1" parent="WIyWlLk6GJQsqaUBKTNV-1" source="BUFvUShkw8OnN1NsTKim-48" target="BUFvUShkw8OnN1NsTKim-72">
          <mxGeometry width="50" height="50" relative="1" as="geometry">
            <mxPoint x="465" y="610" as="sourcePoint" />
            <mxPoint x="515" y="560" as="targetPoint" />
            <Array as="points">
              <mxPoint x="602" y="560" />
            </Array>
          </mxGeometry>
        </mxCell>
        <mxCell id="BUFvUShkw8OnN1NsTKim-75" value="" style="endArrow=none;html=1;" edge="1" parent="WIyWlLk6GJQsqaUBKTNV-1" target="BUFvUShkw8OnN1NsTKim-66">
          <mxGeometry width="50" height="50" relative="1" as="geometry">
            <mxPoint x="-37" y="650" as="sourcePoint" />
            <mxPoint x="95" y="690" as="targetPoint" />
          </mxGeometry>
        </mxCell>
        <mxCell id="BUFvUShkw8OnN1NsTKim-76" value="" style="endArrow=none;html=1;" edge="1" parent="WIyWlLk6GJQsqaUBKTNV-1" target="BUFvUShkw8OnN1NsTKim-67">
          <mxGeometry width="50" height="50" relative="1" as="geometry">
            <mxPoint x="112" y="650" as="sourcePoint" />
            <mxPoint x="-27.278812572758852" y="609.8137369033761" as="targetPoint" />
          </mxGeometry>
        </mxCell>
        <mxCell id="BUFvUShkw8OnN1NsTKim-77" value="" style="endArrow=none;html=1;" edge="1" parent="WIyWlLk6GJQsqaUBKTNV-1" target="BUFvUShkw8OnN1NsTKim-68">
          <mxGeometry width="50" height="50" relative="1" as="geometry">
            <mxPoint x="255" y="650" as="sourcePoint" />
            <mxPoint x="122.27881257275908" y="609.8137369033761" as="targetPoint" />
          </mxGeometry>
        </mxCell>
        <mxCell id="BUFvUShkw8OnN1NsTKim-78" value="" style="endArrow=none;html=1;" edge="1" parent="WIyWlLk6GJQsqaUBKTNV-1">
          <mxGeometry width="50" height="50" relative="1" as="geometry">
            <mxPoint x="-37" y="650" as="sourcePoint" />
            <mxPoint x="255.5" y="650" as="targetPoint" />
          </mxGeometry>
        </mxCell>
        <mxCell id="BUFvUShkw8OnN1NsTKim-79" value="" style="endArrow=classic;html=1;" edge="1" parent="WIyWlLk6GJQsqaUBKTNV-1" target="BUFvUShkw8OnN1NsTKim-80">
          <mxGeometry width="50" height="50" relative="1" as="geometry">
            <mxPoint x="112.16000000000003" y="650" as="sourcePoint" />
            <mxPoint x="112.16000000000003" y="710" as="targetPoint" />
          </mxGeometry>
        </mxCell>
        <mxCell id="BUFvUShkw8OnN1NsTKim-80" value="Logout" style="shape=parallelogram;perimeter=parallelogramPerimeter;whiteSpace=wrap;html=1;fixedSize=1;" vertex="1" parent="WIyWlLk6GJQsqaUBKTNV-1">
          <mxGeometry x="52.5" y="710" width="120" height="60" as="geometry" />
        </mxCell>
        <mxCell id="BUFvUShkw8OnN1NsTKim-81" value="" style="endArrow=none;html=1;" edge="1" parent="WIyWlLk6GJQsqaUBKTNV-1" target="BUFvUShkw8OnN1NsTKim-55">
          <mxGeometry width="50" height="50" relative="1" as="geometry">
            <mxPoint x="-434" y="650" as="sourcePoint" />
            <mxPoint x="-428.08881257275885" y="600.0037369033761" as="targetPoint" />
          </mxGeometry>
        </mxCell>
        <mxCell id="BUFvUShkw8OnN1NsTKim-82" value="" style="endArrow=none;html=1;" edge="1" parent="WIyWlLk6GJQsqaUBKTNV-1" target="BUFvUShkw8OnN1NsTKim-56">
          <mxGeometry width="50" height="50" relative="1" as="geometry">
            <mxPoint x="-213.08999999999992" y="650.3100000000001" as="sourcePoint" />
            <mxPoint x="-212.91709072077379" y="600.0045551825064" as="targetPoint" />
          </mxGeometry>
        </mxCell>
        <mxCell id="BUFvUShkw8OnN1NsTKim-83" value="" style="endArrow=none;html=1;" edge="1" parent="WIyWlLk6GJQsqaUBKTNV-1">
          <mxGeometry width="50" height="50" relative="1" as="geometry">
            <mxPoint x="-435" y="650" as="sourcePoint" />
            <mxPoint x="-213" y="650" as="targetPoint" />
          </mxGeometry>
        </mxCell>
        <mxCell id="BUFvUShkw8OnN1NsTKim-84" value="Logout" style="shape=parallelogram;perimeter=parallelogramPerimeter;whiteSpace=wrap;html=1;fixedSize=1;" vertex="1" parent="WIyWlLk6GJQsqaUBKTNV-1">
          <mxGeometry x="-385" y="720" width="120" height="60" as="geometry" />
        </mxCell>
        <mxCell id="BUFvUShkw8OnN1NsTKim-86" value="" style="endArrow=classic;html=1;" edge="1" parent="WIyWlLk6GJQsqaUBKTNV-1" target="BUFvUShkw8OnN1NsTKim-84">
          <mxGeometry width="50" height="50" relative="1" as="geometry">
            <mxPoint x="-325" y="650" as="sourcePoint" />
            <mxPoint x="-95" y="670" as="targetPoint" />
            <Array as="points">
              <mxPoint x="-325" y="710" />
            </Array>
          </mxGeometry>
        </mxCell>
        <mxCell id="BUFvUShkw8OnN1NsTKim-87" value="" style="endArrow=classic;html=1;" edge="1" parent="WIyWlLk6GJQsqaUBKTNV-1" source="BUFvUShkw8OnN1NsTKim-72">
          <mxGeometry width="50" height="50" relative="1" as="geometry">
            <mxPoint x="122.16000000000008" y="660" as="sourcePoint" />
            <mxPoint x="425" y="680" as="targetPoint" />
          </mxGeometry>
        </mxCell>
        <mxCell id="BUFvUShkw8OnN1NsTKim-88" value="Logout" style="shape=parallelogram;perimeter=parallelogramPerimeter;whiteSpace=wrap;html=1;fixedSize=1;" vertex="1" parent="WIyWlLk6GJQsqaUBKTNV-1">
          <mxGeometry x="362" y="660" width="120" height="60" as="geometry" />
        </mxCell>
        <mxCell id="BUFvUShkw8OnN1NsTKim-91" value="" style="endArrow=none;html=1;" edge="1" parent="WIyWlLk6GJQsqaUBKTNV-1" source="BUFvUShkw8OnN1NsTKim-84">
          <mxGeometry width="50" height="50" relative="1" as="geometry">
            <mxPoint x="-145" y="890" as="sourcePoint" />
            <mxPoint x="-325" y="840" as="targetPoint" />
          </mxGeometry>
        </mxCell>
        <mxCell id="BUFvUShkw8OnN1NsTKim-92" value="" style="endArrow=none;html=1;" edge="1" parent="WIyWlLk6GJQsqaUBKTNV-1" target="BUFvUShkw8OnN1NsTKim-80">
          <mxGeometry width="50" height="50" relative="1" as="geometry">
            <mxPoint x="113" y="840" as="sourcePoint" />
            <mxPoint x="-315" y="850" as="targetPoint" />
          </mxGeometry>
        </mxCell>
        <mxCell id="BUFvUShkw8OnN1NsTKim-93" value="" style="endArrow=none;html=1;" edge="1" parent="WIyWlLk6GJQsqaUBKTNV-1" target="BUFvUShkw8OnN1NsTKim-88">
          <mxGeometry width="50" height="50" relative="1" as="geometry">
            <mxPoint x="422" y="840" as="sourcePoint" />
            <mxPoint x="122.65000000000009" y="780" as="targetPoint" />
          </mxGeometry>
        </mxCell>
        <mxCell id="BUFvUShkw8OnN1NsTKim-94" value="" style="endArrow=none;html=1;" edge="1" parent="WIyWlLk6GJQsqaUBKTNV-1">
          <mxGeometry width="50" height="50" relative="1" as="geometry">
            <mxPoint x="-327" y="840" as="sourcePoint" />
            <mxPoint x="423" y="840" as="targetPoint" />
          </mxGeometry>
        </mxCell>
        <mxCell id="BUFvUShkw8OnN1NsTKim-95" value="" style="endArrow=classic;html=1;entryX=0.5;entryY=0;entryDx=0;entryDy=0;" edge="1" parent="WIyWlLk6GJQsqaUBKTNV-1" target="BUFvUShkw8OnN1NsTKim-96">
          <mxGeometry width="50" height="50" relative="1" as="geometry">
            <mxPoint x="112.38" y="840" as="sourcePoint" />
            <mxPoint x="112.38" y="890" as="targetPoint" />
          </mxGeometry>
        </mxCell>
        <mxCell id="BUFvUShkw8OnN1NsTKim-96" value="End" style="rounded=1;whiteSpace=wrap;html=1;fontSize=12;glass=0;strokeWidth=1;shadow=0;" vertex="1" parent="WIyWlLk6GJQsqaUBKTNV-1">
          <mxGeometry x="52.5" y="890" width="120" height="40" as="geometry" />
        </mxCell>
      </root>
    </mxGraphModel>
  </diagram>
</mxfile>
